<?xml version="1.0" encoding="utf-8"?>
<!-- Generator: Adobe Illustrator 14.0.0, SVG Export Plug-In . SVG Version: 6.00 Build 43363)  -->
<!DOCTYPE svg PUBLIC "-//W3C//DTD SVG 1.1//EN" "http://www.w3.org/Graphics/SVG/1.1/DTD/svg11.dtd">
<svg version="1.1" id="Weather" xmlns="http://www.w3.org/2000/svg" xmlns:xlink="http://www.w3.org/1999/xlink" x="0px" y="0px"
	 width="75px" height="75px" viewBox="0 0 75 75" enable-background="new 0 0 75 75" xml:space="preserve">
<g id="Sun" display="none">
	<polygon display="inline" fill="#FFFFFF" stroke="#000000" stroke-width="3.5" stroke-miterlimit="10" points="51.561,48.975 
		60.259,51.834 60.259,41.854 67.642,35.391 60.259,30.269 61.217,21.196 54.271,21.196 47.549,14.46 42.422,20.567 31.938,21.196 
		32.928,30.269 25.005,35.391 32.46,41.854 31.53,51.834 40.381,48.813 45.043,56.269 	"/>
	
		<circle display="inline" fill="#FFFFFF" stroke="#000000" stroke-width="3.5" stroke-miterlimit="10" cx="46.548" cy="35.096" r="12.341"/>
</g>
<g id="Sun_1_">
	<polygon fill="#FFCE00" stroke="#FFE578" stroke-width="3.5" stroke-miterlimit="10" points="50.732,54.409 61.541,57.961 
		61.541,45.561 70.713,37.531 61.541,31.17 62.729,19.899 54.102,19.899 45.752,11.531 39.382,19.119 26.359,19.899 27.591,31.17 
		17.748,37.531 27.008,45.561 25.852,57.961 36.846,54.209 42.635,63.469 	"/>
	<circle fill="#FFCE00" stroke="#FFE578" stroke-width="3.5" stroke-miterlimit="10" cx="44.51" cy="37.169" r="15.33"/>
</g>
<path id="Cloud_2_" fill="#E3FAFF" stroke="#5FACE0" stroke-width="3.5" stroke-miterlimit="10" d="M13.286,37.091
	c-0.313-8.932,12.164-19.079,20.425-4.909c0.282-0.138,10.557-7.221,13.703,7.715c8.271-0.351,10.344,17.882-3.105,17.535
	c-9.677-0.356-25.304,0.834-35.535,0.108C2.4,57.312,1.909,40.905,13.286,37.091z"/>
</svg>
