<?xml version="1.0" encoding="utf-8"?>
<!-- Generator: Adobe Illustrator 14.0.0, SVG Export Plug-In . SVG Version: 6.00 Build 43363)  -->
<!DOCTYPE svg PUBLIC "-//W3C//DTD SVG 1.1//EN" "http://www.w3.org/Graphics/SVG/1.1/DTD/svg11.dtd">
<svg version="1.1" id="Weather" xmlns="http://www.w3.org/2000/svg" xmlns:xlink="http://www.w3.org/1999/xlink" x="0px" y="0px"
	 width="75px" height="75px" viewBox="0 0 75 75" enable-background="new 0 0 75 75" xml:space="preserve">
<path id="Cloud_1_" fill="#707A7C" stroke="#294172" stroke-width="3.5" stroke-miterlimit="10" d="M32.438,31.487
	c-0.306-8.781,11.959-18.758,20.08-4.826c0.274-0.136,10.374-7.096,13.472,7.584c8.129-0.347,10.171,17.58-3.051,17.233
	c-9.512-0.348-24.875,0.824-34.932,0.112C21.741,51.365,21.254,35.235,32.438,31.487z"/>
<path id="Cloud_2_" fill="#CADCE0" stroke="#4264BA" stroke-width="3.5" stroke-miterlimit="10" d="M11.523,34.571
	c-0.312-8.931,12.166-19.079,20.425-4.908c0.281-0.139,10.555-7.219,13.703,7.714c8.271-0.351,10.343,17.883-3.104,17.534
	c-9.675-0.354-25.303,0.836-35.534,0.111C0.638,54.791,0.147,38.386,11.523,34.571z"/>
</svg>
