<?xml version="1.0" encoding="utf-8"?>
<!-- Generator: Adobe Illustrator 14.0.0, SVG Export Plug-In . SVG Version: 6.00 Build 43363)  -->
<!DOCTYPE svg PUBLIC "-//W3C//DTD SVG 1.1//EN" "http://www.w3.org/Graphics/SVG/1.1/DTD/svg11.dtd">
<svg version="1.1" id="Weather" xmlns="http://www.w3.org/2000/svg" xmlns:xlink="http://www.w3.org/1999/xlink" x="0px" y="0px"
	 width="75px" height="75px" viewBox="0 0 75 75" enable-background="new 0 0 75 75" xml:space="preserve">
<path id="Cloud_1_" fill="#707A7C" stroke="#315B72" stroke-width="3.5" stroke-miterlimit="10" d="M32.438,23.76
	c-0.305-8.78,11.959-18.756,20.08-4.825c0.275-0.138,10.375-7.098,13.474,7.584c8.127-0.347,10.168,17.579-3.052,17.233
	c-9.515-0.346-24.879,0.824-34.936,0.111C21.739,43.64,21.253,27.509,32.438,23.76z"/>
<g id="Rain_1_">
	<path id="drop1_1_" fill="#FFFFFF" stroke="#5FACE0" stroke-width="3.5" stroke-linecap="round" d="M51.1,62.987L51.1,62.987
		l-9.749-14.626"/>
	<path id="drop2_1_" fill="#FFFFFF" stroke="#5FACE0" stroke-width="3.5" stroke-linecap="round" d="M42.387,62.987l-9.75-14.626"/>
	<path id="drop3_1_" fill="#FFFFFF" stroke="#5FACE0" stroke-width="3.5" stroke-linecap="round" d="M33.677,62.987l-9.75-14.626"/>
	<path id="drop4_1_" fill="#FFFFFF" stroke="#5FACE0" stroke-width="3.5" stroke-linecap="round" d="M24.51,62.987l-9.75-14.626"/>
</g>
<path id="Cloud_2_" fill="#E3FAFF" stroke="#5FACE0" stroke-width="3.5" stroke-miterlimit="10" d="M11.523,26.844
	c-0.312-8.933,12.165-19.079,20.425-4.908c0.282-0.141,10.556-7.221,13.703,7.712c8.273-0.351,10.34,17.883-3.104,17.533
	c-9.679-0.354-25.308,0.835-35.539,0.111C0.638,47.064,0.146,30.659,11.523,26.844z"/>
</svg>
