<?xml version="1.0" encoding="utf-8"?>
<!-- Generator: Adobe Illustrator 14.0.0, SVG Export Plug-In . SVG Version: 6.00 Build 43363)  -->
<!DOCTYPE svg PUBLIC "-//W3C//DTD SVG 1.1//EN" "http://www.w3.org/Graphics/SVG/1.1/DTD/svg11.dtd">
<svg version="1.1" id="Weather" xmlns="http://www.w3.org/2000/svg" xmlns:xlink="http://www.w3.org/1999/xlink" x="0px" y="0px"
	 width="75px" height="75px" viewBox="0 0 75 75" enable-background="new 0 0 75 75" xml:space="preserve">
<path id="Cloud_1_" fill="#707A7C" stroke="#294172" stroke-width="3.5" stroke-miterlimit="10" d="M32.438,23.76
	c-0.305-8.78,11.959-18.756,20.08-4.825c0.274-0.138,10.374-7.098,13.472,7.584c8.129-0.347,10.169,17.579-3.051,17.233
	c-9.514-0.346-24.877,0.824-34.934,0.111C21.742,43.64,21.254,27.509,32.438,23.76z"/>
<g id="Rain_1_">
	<path id="drop1_1_" fill="#FFFFFF" stroke="#4264BA" stroke-width="3.5" stroke-linecap="round" d="M51.099,62.987L51.099,62.987
		l-9.748-14.626"/>
	<path id="drop2_1_" fill="#FFFFFF" stroke="#4264BA" stroke-width="3.5" stroke-linecap="round" d="M42.388,62.987l-9.75-14.626"/>
	<path id="drop3_1_" fill="#FFFFFF" stroke="#4264BA" stroke-width="3.5" stroke-linecap="round" d="M33.678,62.987l-9.75-14.626"/>
	<path id="drop4_1_" fill="#FFFFFF" stroke="#4264BA" stroke-width="3.5" stroke-linecap="round" d="M24.51,62.987l-9.75-14.626"/>
</g>
<path id="Cloud_2_" fill="#CADCE0" stroke="#4264BA" stroke-width="3.5" stroke-miterlimit="10" d="M11.525,26.844
	c-0.313-8.933,12.165-19.079,20.425-4.908c0.282-0.141,10.555-7.221,13.702,7.712c8.272-0.351,10.342,17.883-3.105,17.533
	c-9.675-0.354-25.304,0.835-35.536,0.111C0.638,47.064,0.149,30.659,11.525,26.844z"/>
</svg>
