<?xml version="1.0" encoding="utf-8"?>
<!-- Generator: Adobe Illustrator 14.0.0, SVG Export Plug-In . SVG Version: 6.00 Build 43363)  -->
<!DOCTYPE svg PUBLIC "-//W3C//DTD SVG 1.1//EN" "http://www.w3.org/Graphics/SVG/1.1/DTD/svg11.dtd">
<svg version="1.1" id="Weather" xmlns="http://www.w3.org/2000/svg" xmlns:xlink="http://www.w3.org/1999/xlink" x="0px" y="0px"
	 width="75px" height="75px" viewBox="0 0 75 75" enable-background="new 0 0 75 75" xml:space="preserve">
<g id="Moon">
	<circle fill="#FFFFFF" stroke="#1F3784" stroke-width="3.5" stroke-miterlimit="10" cx="50.854" cy="26.205" r="15.551"/>
	<path fill="#1F3784" stroke="#1F3784" stroke-width="3.5" stroke-miterlimit="10" d="M50.25,13.285
		c5.192,11.83,1.483,17.292-9.072,22.378c-5.092-1.478-6.267-6.95-3.92-15.264C39.603,12.084,45.534,11.309,50.25,13.285z"/>
</g>
<g id="Rain_1_">
	<path id="drop1_1_" fill="#FFFFFF" stroke="#4264BA" stroke-width="3.5" stroke-linecap="round" d="M57.171,64.346L57.171,64.346
		l-9.75-14.628"/>
	<path id="drop2_1_" fill="#FFFFFF" stroke="#4264BA" stroke-width="3.5" stroke-linecap="round" d="M48.458,64.346l-9.75-14.628"/>
	<path id="drop3_1_" fill="#FFFFFF" stroke="#4264BA" stroke-width="3.5" stroke-linecap="round" d="M39.749,64.346l-9.75-14.628"/>
	<path id="drop4_1_" fill="#FFFFFF" stroke="#4264BA" stroke-width="3.5" stroke-linecap="round" d="M30.578,64.346l-9.75-14.628"/>
</g>
<path id="Cloud_2_" fill="#CADCE0" stroke="#4264BA" stroke-width="3.5" stroke-miterlimit="10" d="M17.595,28.2
	c-0.313-8.933,12.164-19.079,20.425-4.909c0.283-0.138,10.555-7.218,13.705,7.714c8.271-0.35,10.345,17.884-3.105,17.535
	c-9.676-0.354-25.303,0.836-35.535,0.11C6.707,48.422,6.217,32.015,17.595,28.2z"/>
</svg>
