<?xml version="1.0" encoding="utf-8"?>
<!-- Generator: Adobe Illustrator 14.0.0, SVG Export Plug-In . SVG Version: 6.00 Build 43363)  -->
<!DOCTYPE svg PUBLIC "-//W3C//DTD SVG 1.1//EN" "http://www.w3.org/Graphics/SVG/1.1/DTD/svg11.dtd">
<svg version="1.1" id="Weather" xmlns="http://www.w3.org/2000/svg" xmlns:xlink="http://www.w3.org/1999/xlink" x="0px" y="0px"
	 width="75px" height="75px" viewBox="0 0 75 75" enable-background="new 0 0 75 75" xml:space="preserve">
<path id="Cloud_1_" fill="#707A7C" stroke="#315B72" stroke-width="3.5" stroke-miterlimit="10" d="M32.438,21.135
	c-0.305-8.779,11.959-18.756,20.08-4.825c0.274-0.139,10.374-7.098,13.472,7.584c8.129-0.347,10.169,17.578-3.051,17.233
	c-9.514-0.347-24.877,0.824-34.934,0.112C21.742,41.014,21.254,24.884,32.438,21.135z"/>
<polygon id="Lightning" fill="#FFCE00" stroke="#FFE578" stroke-width="3.5" stroke-linecap="round" stroke-linejoin="round" points="
	48.628,40.771 42.988,50.878 49.1,50.407 46.514,57.931 56.151,47.121 50.034,46.882 54.035,40.771 "/>
<path id="Cloud_2_" fill="#E3FAFF" stroke="#5FACE0" stroke-width="3.5" stroke-miterlimit="10" d="M11.525,24.219
	C11.212,15.287,23.689,5.14,31.95,19.312c0.282-0.139,10.555-7.22,13.702,7.712c8.272-0.35,10.342,17.884-3.105,17.536
	c-9.675-0.354-25.304,0.835-35.536,0.112C0.638,44.438,0.149,28.034,11.525,24.219z"/>
<polygon id="Ligtning" fill="#FFCE00" stroke="#FFE578" stroke-width="3.5" stroke-linecap="round" stroke-linejoin="round" points="
	21.386,39.33 12.747,54.811 22.106,54.092 18.146,65.611 35.786,49.051 26.426,48.691 32.546,39.33 "/>
</svg>
