<?xml version="1.0" encoding="utf-8"?>
<!-- Generator: Adobe Illustrator 14.0.0, SVG Export Plug-In . SVG Version: 6.00 Build 43363)  -->
<!DOCTYPE svg PUBLIC "-//W3C//DTD SVG 1.1//EN" "http://www.w3.org/Graphics/SVG/1.1/DTD/svg11.dtd">
<svg version="1.1" id="Weather" xmlns="http://www.w3.org/2000/svg" xmlns:xlink="http://www.w3.org/1999/xlink" x="0px" y="0px"
	 width="75px" height="75px" viewBox="0 0 75 75" enable-background="new 0 0 75 75" xml:space="preserve">
<path id="Cloud_1_" fill="#707A7C" stroke="#315B72" stroke-width="3.5" stroke-miterlimit="10" d="M32.438,21.692
	c-0.308-8.779,11.959-18.756,20.08-4.825c0.274-0.138,10.374-7.098,13.472,7.584c8.129-0.347,10.171,17.579-3.051,17.234
	c-9.512-0.346-24.875,0.824-34.932,0.111C21.741,41.573,21.254,25.442,32.438,21.692z"/>
<path id="Cloud_2_" fill="#E3FAFF" stroke="#5FACE0" stroke-width="3.5" stroke-miterlimit="10" d="M11.523,24.775
	c-0.312-8.933,12.167-19.079,20.425-4.908c0.28-0.139,10.555-7.22,13.703,7.712c8.271-0.351,10.343,17.882-3.104,17.533
	c-9.675-0.354-25.303,0.836-35.534,0.11C0.638,44.996,0.147,28.593,11.523,24.775z"/>
<g id="Snow">
	
		<line fill="none" stroke="#5FACE0" stroke-width="3.5" stroke-linecap="round" stroke-miterlimit="10" x1="14.567" y1="65.055" x2="14.567" y2="47.777"/>
	
		<line fill="none" stroke="#5FACE0" stroke-width="3.5" stroke-linecap="round" stroke-miterlimit="10" x1="21.642" y1="61.373" x2="7.494" y2="51.461"/>
	
		<line fill="none" stroke="#5FACE0" stroke-width="3.5" stroke-linecap="round" stroke-miterlimit="10" x1="7.492" y1="61.373" x2="21.64" y2="51.461"/>
</g>
<g id="Snow_1_">
	
		<line fill="none" stroke="#5FACE0" stroke-width="3.5" stroke-linecap="round" stroke-miterlimit="10" x1="39.509" y1="58.609" x2="39.509" y2="43.728"/>
	
		<line fill="none" stroke="#5FACE0" stroke-width="3.5" stroke-linecap="round" stroke-miterlimit="10" x1="45.602" y1="55.435" x2="33.414" y2="46.902"/>
	
		<line fill="none" stroke="#5FACE0" stroke-width="3.5" stroke-linecap="round" stroke-miterlimit="10" x1="33.414" y1="55.435" x2="45.599" y2="46.902"/>
</g>
<g id="Snow_2_">
	
		<line fill="none" stroke="#5FACE0" stroke-width="3.5" stroke-linecap="round" stroke-miterlimit="10" x1="28.119" y1="38.925" x2="28.119" y2="27.891"/>
	
		<line fill="none" stroke="#5FACE0" stroke-width="3.5" stroke-linecap="round" stroke-miterlimit="10" x1="32.64" y1="36.575" x2="23.599" y2="30.244"/>
	
		<line fill="none" stroke="#5FACE0" stroke-width="3.5" stroke-linecap="round" stroke-miterlimit="10" x1="23.599" y1="36.575" x2="32.64" y2="30.244"/>
</g>
</svg>
